<svg width="40" height="40" viewBox="0 0 40 40" fill="none" xmlns="http://www.w3.org/2000/svg">
<path fill-rule="evenodd" clip-rule="evenodd" d="M20.6756 6.90386C18.2737 4.45291 14.4305 4.3684 11.9292 6.65031L11.6665 6.90386L24.5009 20L11.6665 33.0964C14.1542 35.6345 18.1879 35.6345 20.6756 33.0964L29.0053 24.5963L29.0175 24.6092L32.4101 21.15L35.1816 18.3219C36.436 17.0419 38.0129 16.3167 39.9998 16.4047L37.0668 13.4117C35.3874 11.6981 32.6638 11.6981 30.9844 13.4117L29.0313 15.4048L29.0175 15.3907L29.0053 15.4036L20.6756 6.90386ZM1.6665 11.0445C4.21166 8.54073 8.33818 8.54073 10.8837 11.0445L15.3785 15.4665L15.391 15.4538L19.9998 19.9877L19.9869 20L19.9998 20.0127L15.391 24.5462L15.3785 24.5335L10.8837 28.9555C8.33818 31.4593 4.21166 31.4593 1.6665 28.9555L10.7701 20L1.6665 11.0445Z" fill="black"/>
</svg>
