<svg width="1246" height="1305" viewBox="0 0 1246 1305" fill="none" xmlns="http://www.w3.org/2000/svg">
<path d="M585 108.997L593 1041.78" stroke="#25201D" stroke-width="20" stroke-linecap="round"/>
<path d="M784 1046.79C784 1046.79 994.432 29.7985 591.932 29.8C189.432 29.8015 407.5 1046.8 407.5 1046.8" stroke="#25201D" stroke-width="20" stroke-linecap="round"/>
<path d="M388 675.175L525.179 537.997" stroke="#25201D" stroke-width="20" stroke-linecap="round"/>
<path d="M655 478.175L792.179 340.997" stroke="#25201D" stroke-width="20" stroke-linecap="round"/>
<path d="M398 783.175L535.179 645.997" stroke="#25201D" stroke-width="20" stroke-linecap="round"/>
<path d="M655 586.175L792.179 448.997" stroke="#25201D" stroke-width="20" stroke-linecap="round"/>
<path d="M31 1129C31 1129 6.50002 1277 322.5 1129C638.5 981 339.75 1293.5 638.5 1129C937.25 964.5 722.5 1260.5 937.25 1129C1152 997.496 1119.33 1129 1236 1129" stroke="#25201D" stroke-width="20" stroke-linecap="round"/>
<path d="M11 1229C11 1229 -13.5 1377 302.5 1229C618.5 1081 319.75 1393.5 618.5 1229C917.25 1064.5 702.5 1360.5 917.25 1229C1132 1097.5 1099.33 1229 1216 1229" stroke="#25201D" stroke-width="20" stroke-linecap="round"/>
<path d="M599.5 832C599.5 832 782.5 910.56 697.936 938.748C613.372 966.936 599.5 1029.13 599.5 1029.13L599.5 832Z" fill="#25201D"/>
</svg>
